<svg width="794.67004" height="615.3107" xmlns="http://www.w3.org/2000/svg" data-name="Layer 1">

 <g>
  <title>Layer 1</title>
  <path id="svg_1" fill="#f2f2f2" d="m572.25932,232.584a25.32606,25.32606 0 0 0 -17.9885,-7.44971l0,-14.81674a25.80081,25.80081 0 0 0 -25.8177,-25.8179l0,-11.16629l6.14471,0a9.9109,9.9109 0 0 0 0,-19.8218l-6.14471,0l0,-7.747l-3.03948,0l0,7.747l-7.334,0a9.9109,9.9109 0 0 0 0,19.8218l7.334,0l0,11.16629l-18.92971,0a13.70808,13.70808 0 0 0 -13.71016,13.71005l0,26.92457l-4.37715,0a51.43354,51.43354 0 0 0 -51.43738,51.43758l0,35.983a54.57939,54.57939 0 0 0 -38.066,40.15222l-22.54714,0l0,-22.78186l-13.669,0l0,-9.58021l8.39095,0a9.9109,9.9109 0 0 0 0,-19.8218l-8.39095,0l0,-6.28938l-3.03747,0l0,6.28938l-5.08974,0a9.9109,9.9109 0 1 0 0,19.8218l5.08974,0l0,9.62084a13.70265,13.70265 0 0 0 -12.9097,13.67326l0,9.14971a51.4435,51.4435 0 0 0 -48.60114,51.36257l0,210.546l138.83041,0l0,0.00131l142.74983,0l0,-364.12642a25.32546,25.32546 0 0 0 -7.44971,-17.98827z"/>
  <path id="svg_2" fill="#f2f2f2" d="m285.15907,225.12905l0,-14.80818a25.81929,25.81929 0 0 0 -25.81931,-25.8193l0,0l0,-14.47185l6.012,0a9.91089,9.91089 0 1 0 0,-19.82179l-6.012,0l0,-4.43532l-3.03747,0l0,4.43532l-7.46866,0a9.91089,9.91089 0 1 0 0,19.82179l7.46866,0l0,14.47185l-18.94,0a13.71393,13.71393 0 0 0 -13.714,13.714l0,26.9135l-4.3709,0a51.44444,51.44444 0 0 0 -51.44446,51.44431l0,33.33253a54.55346,54.55346 0 0 0 -32.47617,42.80114l-28.12866,0l0,-22.78184l-13.669,0l0,-12.88384l4.95928,0a9.9109,9.9109 0 0 0 0,-19.8218l-4.95928,0l0,-2.98575l-3.03768,0l0,2.98575l-8.52121,0a9.9109,9.9109 0 0 0 0,19.8218l8.52121,0l0,12.92447a13.70279,13.70279 0 0 0 -12.90965,13.67326l0,9.14971a51.44364,51.44364 0 0 0 -48.60114,51.36257l0,210.546l281.5883,0l0,-364.12871a25.43966,25.43966 0 0 0 -25.43986,-25.43962z"/>
  <rect id="svg_3" transform="rotate(-180 417.417 1014.87)" fill="#fff" height="15.18785" width="18.98481" y="1585.9121" x="717.7332"/>
  <rect id="svg_4" transform="rotate(-180 355.147 1014.87)" fill="#fff" height="15.18785" width="18.98481" y="1585.9121" x="624.32795"/>
  <rect id="svg_5" transform="rotate(-180 417.417 1092.33)" fill="#fff" height="15.18785" width="18.98481" y="1702.09905" x="717.7332"/>
  <rect id="svg_6" transform="rotate(-180 355.146 1092.33)" fill="#fff" height="15.18785" width="18.98481" y="1702.09905" x="624.32795"/>
  <rect id="svg_7" transform="rotate(-180 417.417 1169.79)" fill="#fff" height="15.18785" width="18.98481" y="1818.28619" x="717.7332"/>
  <rect id="svg_8" transform="rotate(-180 355.146 1169.79)" fill="#fff" height="15.18785" width="18.98481" y="1818.28619" x="624.32795"/>
  <rect id="svg_9" transform="rotate(-180 355.146 1247.25)" fill="#fff" height="15.18785" width="18.98481" y="1934.47321" x="624.32795"/>
  <rect id="svg_10" transform="rotate(-180 355.146 1324.71)" fill="#fff" height="15.18785" width="18.98481" y="2050.66023" x="624.32795"/>
  <rect id="svg_11" transform="rotate(-180 680.633 939.693)" fill="#fff" height="4.55635" width="61.51078" y="1478.45805" x="1091.29444"/>
  <rect id="svg_12" transform="rotate(-180 680.633 995.888)" fill="#fff" height="4.55635" width="61.51078" y="1562.75064" x="1091.29444"/>
  <rect id="svg_13" transform="rotate(-180 680.633 1052.08)" fill="#fff" height="4.55635" width="61.51078" y="1647.0431" x="1091.29444"/>
  <rect id="svg_14" transform="rotate(-180 711.009 543.291)" fill="#fff" height="15.18785" width="18.98481" y="878.53813" x="1158.12094"/>
  <rect id="svg_15" transform="rotate(-180 955.653 1092.33)" fill="#fff" height="15.18785" width="18.98481" y="1702.09905" x="1525.08721"/>
  <rect id="svg_16" transform="rotate(-180 893.383 1092.33)" fill="#fff" height="15.18785" width="18.98481" y="1702.09905" x="1431.68198"/>
  <rect id="svg_17" transform="rotate(-180 955.653 1169.79)" fill="#fff" height="15.18785" width="18.98481" y="1818.28619" x="1525.08721"/>
  <rect id="svg_18" transform="rotate(-180 893.383 1169.79)" fill="#fff" height="15.18785" width="18.98481" y="1818.28619" x="1431.68198"/>
  <rect id="svg_19" transform="rotate(-180 955.653 1247.25)" fill="#fff" height="15.18785" width="18.98481" y="1934.47321" x="1525.08721"/>
  <rect id="svg_20" transform="rotate(-180 893.383 1247.25)" fill="#fff" height="15.18785" width="18.98481" y="1934.47321" x="1431.68198"/>
  <rect id="svg_21" transform="rotate(-180 955.653 1324.71)" fill="#fff" height="15.18785" width="18.98481" y="2050.66023" x="1525.08721"/>
  <rect id="svg_22" transform="rotate(-180 893.383 1324.71)" fill="#fff" height="15.18785" width="18.98481" y="2050.66023" x="1431.68198"/>
  <rect id="svg_23" transform="rotate(-180 1249.24 543.291)" fill="#fff" height="15.18785" width="18.98481" y="878.53813" x="1965.47505"/>
  <rect id="svg_24" fill="#fff" height="9.9109" width="46.76301" y="257.57598" x="532.94602"/>
  <rect id="svg_25" fill="#fff" height="9.9109" width="46.76301" y="287.30867" x="532.94602"/>
  <rect id="svg_26" fill="#fff" height="9.9109" width="46.76301" y="317.04136" x="532.94602"/>
  <rect id="svg_27" fill="#fff" height="9.9109" width="46.76301" y="346.77405" x="532.94602"/>
  <rect id="svg_28" fill="#fff" height="9.9109" width="46.76301" y="376.50675" x="532.94602"/>
  <rect id="svg_29" fill="#fff" height="9.9109" width="46.76301" y="406.23944" x="532.94602"/>
  <path id="svg_53" fill="#ccc" d="m794.67003,614.1207a1.18646,1.18646 0 0 1 -1.19006,1.19l-792.29,0a1.19,1.19 0 0 1 0,-2.38l792.29,0a1.1865,1.1865 0 0 1 1.19006,1.19z"/>
  <circle id="svg_55" fill="#fd6584" r="26.70075" cy="157.80496" cx="664.86216"/>
  <path id="svg_56" fill="#f0f0f0" d="m724.62462,145.1632a13.24763,13.24763 0 0 0 -11.1792,-9.29077c-0.058,-0.00818 -0.113,0.00263 -0.17077,-0.0011a1.66619,1.66619 0 0 0 -0.22791,-0.05249c-12.21069,-1.57812 -26.30591,4.2619 -31.3949,15.83814a12.93477,12.93477 0 0 0 -10.83325,-5.27906a13.19324,13.19324 0 0 0 -11.80029,9.51136a1.54784,1.54784 0 0 0 0.68933,1.694a6.76581,6.76581 0 0 0 2.78967,1.416q3.32629,0.70468 6.67627,1.29108q6.53686,1.14394 13.142,1.84973a195.42059,195.42059 0 0 0 26.918,1.01746c2.99267,-0.09326 5.87866,-0.19257 8.6206,-1.51337a12.82692,12.82692 0 0 0 4.94532,-4.31555a14.55148,14.55148 0 0 0 1.82513,-12.16543z"/>
  <path id="svg_57" fill="#f0f0f0" d="m669.12902,180.76416a13.24793,13.24793 0 0 0 -11.1792,-9.29071c-0.05811,-0.00818 -0.11316,0.00262 -0.1709,-0.0011a1.66263,1.66263 0 0 0 -0.22779,-0.05249c-12.21069,-1.57813 -26.3059,4.26184 -31.395,15.83807a12.93424,12.93424 0 0 0 -10.83326,-5.279a13.19324,13.19324 0 0 0 -11.80029,9.51135a1.54812,1.54812 0 0 0 0.68945,1.694a6.76622,6.76622 0 0 0 2.78955,1.416q3.3263,0.70458 6.67627,1.29107q6.53686,1.14387 13.14209,1.84973a195.427,195.427 0 0 0 26.918,1.01746c2.99256,-0.09326 5.87854,-0.19263 8.62061,-1.51343a12.82846,12.82846 0 0 0 4.94531,-4.31549a14.552,14.552 0 0 0 1.82516,-12.16546z"/>
 </g>
</svg>